<?xml version="1.0"?>
<svg xmlns="http://www.w3.org/2000/svg" viewBox="0 0 1221.57 763.04" width="1221.57" height="763.04"><defs><style>.a{fill:#e6f5ff;}.b{fill:#b5d8ff;}.c{fill:#fff;}</style></defs><title>облака</title><path class="a" d="M475.52,773.82c18.61,15.49,48.46,15,58.69-5.23,9.87,14.72,24.34,26.91,41.5,31.33s37,.09,48.86-13.06c10.79,20.26,33.78,32,56.66,33.85s45.65-5.05,66.54-14.56c11.48-5.23,22.83-12.68,25.67-25.73C786.08,785,804,780,808,764.45c13.9,6.73,33.88,3.29,38.53,1.3,16.94-7.23,20.1-22.37,19-35.37-1.38-15.53-13.83-32.18-29.2-29.6a61.62,61.62,0,0,0-90.32-48.09c-3.47-7.69-7-15.54-12.86-21.64-4.72-4.95-15.45-12.12-24-14.83-5.07-6.94-12.39-15.82-23.74-22.59-22-13.12-58.39-10.49-79-1.72-15.84,6.73-31,18.41-34.55,35.26-18.2-3.45-38.19.7-52.06,13s-20.41,33-14,50.38c-18.2-2.85-37.69,6.71-46.58,22.85C447.36,734.75,458.16,759.38,475.52,773.82Z" transform="translate(-308.59 -72.14)"></path><path class="b" d="M475.52,773.82c18.61,15.49,48.46,15,58.69-5.23,9.87,14.72,24.34,26.91,41.5,31.33s37,.09,48.86-13.06c10.79,20.26,33.78,32,56.66,33.85s45.65-5.05,66.54-14.56c11.48-5.23,22.83-12.68,25.67-25.73C786.08,785,804,780,808,764.45c13.9,6.73,33.88,3.29,38.53,1.3,12.15-5.19,17.2-14.45,18.66-24.08-11.41,23-57.5,18.17-70.09,3.91-13.74,19.57-56.7,34.64-76,13.35,29.24-4.52,55.35-22.85,69.54-47.19-11.13,8.92-22.4,16.81-34.44,22.87a124.75,124.75,0,0,1-37.75,12.1A111.42,111.42,0,0,1,677,745.49c-13.1-2.8-25.83-7.94-38.43-14.6a85.44,85.44,0,0,0,35.77,24,91.2,91.2,0,0,0,38,4.91c-15.84,23.08-65.4,25.71-86.91,3.35-23.67,21.22-46,18.49-75.64.89-6.61-3.92-14-12.43-18.09-21a61.52,61.52,0,0,0,29.38,5c18.45-1.4,36.11-11.18,46.06-25.95a126.76,126.76,0,0,1-22.78,11.76,86.75,86.75,0,0,1-24,5.41,82.07,82.07,0,0,1-24.46-1.74,111.83,111.83,0,0,1-24-8.74,53.63,53.63,0,0,0,16.57,12.81c-4.34,11-17.56,22.12-34.41,22.45-20.6.4-44.71-15.73-36.5-47.3C448.5,737.2,459,760.1,475.52,773.82Z" transform="translate(-308.59 -72.14)"></path><path class="c" d="M507.85,698.07c11.62-14.12,27.25-22,43.84-25.06a84.19,84.19,0,0,1,25.32-.75,99.29,99.29,0,0,1,25.42,6.89,53.54,53.54,0,0,0-24.06-13.63c-1-.27-2-.42-3-.64C567,641,607.29,618.55,625.85,635.45c4-25,43.12-26.75,59.83-11.38,13.34,12.28,7.83,20.92-1.15,26.72A70.42,70.42,0,0,0,659,659.06c-8,4.56-15.41,10.9-19.66,19.06a131,131,0,0,1,23.74-9.55A140.23,140.23,0,0,1,687,663.76a117.06,117.06,0,0,1,24.11-.34,74.41,74.41,0,0,1,24.32,6.36h0c11.1-6.28,38.62-10.88,57.8-2.34s35,24.31,36.28,45.26c13.22-5.52,27-2.76,33.85,8.43-4.38-12.14-14.8-22.41-27.11-20.35a61.62,61.62,0,0,0-90.32-48.09c-3.47-7.69-7-15.54-12.86-21.64-4.72-4.95-15.45-12.12-24-14.83-5.07-6.94-12.39-15.82-23.74-22.59-22-13.12-58.39-10.49-79-1.72-15.84,6.73-31,18.41-34.55,35.26-18.2-3.45-38.19.7-52.06,13s-20.41,33-14,50.38c-16-2.51-33,4.61-42.95,17.36C476.21,696,497.23,692.82,507.85,698.07Z" transform="translate(-308.59 -72.14)"></path><path class="a" d="M391.11,177.55c-8.16-10.12-34.18-11-45.44-7.93-23.55,6.32-37.08,30.1-37.08,53.68,0,20.85,9.8,51.77,40.54,49-3.58,10.15,5.19,28.09,10.95,33.7,12.16,11.83,28.42,12.89,42.39,10.45.16,7.67,4.73,16.35,10.6,22.75,5.53,6,15.35,11.49,24.6,14.59,15.65,5.25,33.89,5.55,49.85,1.53a87.39,87.39,0,0,0,52.89-39.16c26.17,23.38,66.75,32.81,101,28.69,15.16-1.83,32.77-5.55,44.61-10.8,11.56-5.11,27.53-15.78,32.8-26.47,10.32,9.8,28.74,9.1,38.28-1.46a48.14,48.14,0,0,0,41.4,7.17c14.75-4.38,24-15.2,31-28.12,18.36,8.46,49.35-4.48,64.08-16.52,19.69-16.1,20-53.83,7.38-73.52-11.1-17.38-28.93-26.92-49.39-23.86,3.32-18.48-9.23-37.62-26.56-44.86s-37.86-3.88-54,5.73c-3.74-8.71-13.59-13.51-23.06-14s-18.71,2.58-27.67,5.66c-.19-29.81-21.74-52.95-52.59-51.59-12,.53-27.06,3.66-38.29,9.8-5.19,2.84-14.27,10.55-20.2,20.32a118.2,118.2,0,0,0-163.69,50.77C426.07,145.74,394.1,154.34,391.11,177.55Z" transform="translate(-308.59 -72.14)"></path><path class="b" d="M349.13,272.26c-3.58,10.15,5.19,28.09,10.95,33.7,12.16,11.83,28.42,12.89,42.39,10.45.16,7.67,4.73,16.35,10.6,22.75,5.53,6,15.35,11.49,24.6,14.59,15.65,5.25,33.89,5.55,49.85,1.53a87.39,87.39,0,0,0,52.89-39.16c26.17,23.38,66.75,32.81,101,28.69,15.16-1.83,32.77-5.55,44.61-10.8,11.56-5.11,27.53-15.78,32.8-26.47,10.32,9.8,28.74,9.1,38.28-1.46a48.11,48.11,0,0,0,41.4,7.16c14.75-4.37,24-15.19,31-28.11,18.36,8.46,49.35-4.48,64.08-16.52,7.7-6.29,12.38-15.89,14.54-26.42-13.91,37.3-72,36.19-94.4,20.78-7.71,10.65-24.78,15.24-37.26,13-14.32,9.37-41.48,12.3-60.06-1.89C707.74,298,679,316.12,654,311.8c-14.32-2.48-29.18-15.42-31.15-27.65a128.37,128.37,0,0,0,38.33-14.47c16.72-9.76,31.48-23.73,39.42-41A149.23,149.23,0,0,1,655,257.25,167.32,167.32,0,0,1,604.31,269,143.6,143.6,0,0,1,553,263.63c-16.73-4.92-32.42-13.6-47-25.51,24.23,45.15-40.18,92.95-67,54.77-50.74,18.89-50.36-30.84-20.77-44.26a65.8,65.8,0,0,0,17-6.91,56.66,56.66,0,0,0,20.14-19.45,106.62,106.62,0,0,1-23.14,13.48,84.29,84.29,0,0,1-50.74,4.59,105.93,105.93,0,0,1-25.17-9.12,56.43,56.43,0,0,0,22.4,15.12c-6.61,13.47-31.51,15.44-46,6.91-13.41-7.91-23.21-26.1-20-52.13a62.5,62.5,0,0,0-4.09,22.18C308.58,244.15,318.39,275.07,349.13,272.26Z" transform="translate(-308.59 -72.14)"></path><path class="c" d="M394.1,194c3.85-13,17.07-22.06,30-24.77,11.15-2.34,25.19,1.23,32.76,11.74,10.31-41,68.51-61.24,83.33-25.9a127.5,127.5,0,0,0-38.67,25.9c62.85-32,134.25-33.5,198.71-4-17.66-16.16-40.28-26.65-64.43-31.56-15.55-9.4-9-18.69,12.83-21.4,31.26-3.89,73.24,8.64,81.06,44.84,10-19.08,37.07-30.1,66.82-24.36C817.7,148.55,836,165.73,839.73,187c28.74-8.16,57.71-.78,68.8,29A56.8,56.8,0,0,0,901,195.09c-11.1-17.38-28.94-26.92-49.39-23.86,3.32-18.48-9.23-37.62-26.56-44.86s-37.86-3.88-54,5.73c-3.74-8.71-13.59-13.51-23.06-14s-18.71,2.58-27.67,5.66c-.19-29.81-21.74-52.95-52.59-51.59-12,.53-27.06,3.66-38.29,9.8-5.19,2.84-14.27,10.55-20.19,20.32a118.21,118.21,0,0,0-163.7,50.77c-19.48-7.34-51.45,1.26-54.44,24.47-8.16-10.12-34.18-11-45.44-7.93-13.25,3.56-23.32,12.64-29.6,24.1C336.59,178.29,374.63,176.74,394.1,194Z" transform="translate(-308.59 -72.14)"></path><path class="a" d="M1227,659.21c.79,1.83,1.56,3.68,2.3,5.53,16.67-5.66,36.88,7.69,38.21,25.24,11.87-3.35,22.84,6.87,25.06,11.3,3.79,7.59,2.43,21.3-1.09,28.55a62.29,62.29,0,0,1-19,21.9c1,4.4,1.2,12.59-.17,17.08-5.27,17.32-30.58,17.43-44.83,16.2,2.57,27.09-21.2,50.18-47.85,50.16a49.62,49.62,0,0,1-42.41-24.9c-16.33,12.91-43.85,7-53.5-11.39a31.66,31.66,0,0,1-59.3-9.75c-6.5,4.93-16.29,7.9-24.48,8-6.83.12-16.4-5.28-21.85-9-12.79-8.74-22.25-23.76-20-39.69,1.76-12.52,9.89-23.25,19-32,13.41-12.87,31.35-23.23,49.75-20.56.66-13.21,7.76-27.91,11.71-34.95,8.45-15.06,29.28-27.54,45.14-32.56,18.88-6,40.68-4.26,56.9,7.1,5.37-12.22,24.8-18.78,31.42-18.78,13.45,0,28.85,6.4,38.24,16C1217.64,640.19,1222.78,649.52,1227,659.21Z" transform="translate(-308.59 -72.14)"></path><path class="b" d="M978.1,788.18c5.45,3.72,15,9.12,21.85,9,8.19-.15,18-3.12,24.48-8a31.66,31.66,0,0,0,59.3,9.75c9.65,18.43,37.17,24.3,53.5,11.39a49.62,49.62,0,0,0,42.41,24.9c26.65,0,50.42-23.07,47.85-50.16,14.25,1.23,39.56,1.12,44.83-16.2,1.37-4.49,1.18-12.68.17-17.08a62.29,62.29,0,0,0,19-21.9,31.69,31.69,0,0,0,2.25-6.78c-6.75,14.67-24,23.81-36.26,21.06-4,9.24-19.27,24.22-30.65,16.87-5.9-3.81-4.17-17.93,12.2-37.7a71.57,71.57,0,0,0,11.09-12h0A152.22,152.22,0,0,1,1222,726.05a94.55,94.55,0,0,1-29.84,6.29,84.86,84.86,0,0,1-30.09-4.05,115.13,115.13,0,0,1-28.26-14.21,65.82,65.82,0,0,0,25.48,21.16,68.59,68.59,0,0,0,23.62,6.41c10.26,25.92-17.3,40.4-37.83,42.2-5.21.45-17-3.66-22.08-8.72-14.63,11.24-35.44,15.23-47.18,9.36-9.46-4.73-16.29-15-13.25-28.32a66.12,66.12,0,0,0,27.48-7.82,65.17,65.17,0,0,0,21.83-18.84,132,132,0,0,1-24.57,12.89,82.54,82.54,0,0,1-26,5.49,74.18,74.18,0,0,1-26.25-3.53,100.83,100.83,0,0,1-24.66-12.4c7.39,11.77,20.23,24.58,9.11,37.48-15,17.36-48.39,9.52-60.34-6.78C961.94,773,969.21,782.11,978.1,788.18Z" transform="translate(-308.59 -72.14)"></path><path class="c" d="M1044.75,713.27c3.13-29.4,30.81-58.65,59.44-66.06,26.64-6.89,53.08,0,70.33,20.53-13.31,1.18-26.35,6.1-35.48,13.82,26.38-4.7,52.16-7.79,78.36,0a40.65,40.65,0,0,0-10.45-7.91c25.86-6.72,50.17,8.55,52.81,24.76,11.09-5.93,28.92-3.9,34.18,6.89a19.37,19.37,0,0,0-1.37-4c-2.22-4.43-13.19-14.65-25.06-11.3-1.33-17.55-21.54-30.9-38.21-25.24-.74-1.85-1.51-3.7-2.3-5.53-4.22-9.69-9.36-19-16.73-26.52-9.39-9.56-24.79-16-38.24-16-6.62,0-26,6.56-31.42,18.78-16.22-11.36-38-13.08-56.9-7.1-15.86,5-36.69,17.5-45.14,32.56-4,7-11,21.74-11.71,34.95-18.4-2.67-36.34,7.69-49.75,20.56-7.14,6.86-13.63,14.93-17,24.12C975.92,713.55,1015.83,697.94,1044.75,713.27Z" transform="translate(-308.59 -72.14)"></path><path class="a" d="M1025,274.53c5.73-.24,11.5-.84,17.1-1.5-.07,10.88,7.78,27.18,9.46,29.77,9.29,14.31,29.76,26.51,47.07,27.55,20.32,1.22,35.9-4.31,49.54-14.21,3.16,10.17,12.24,21.46,20.16,26.16,29.63,17.61,72.79,6.68,96.45-14.53,17.56,29.93,39.27,36.87,72.68,37.72,15.81.4,32.18-5.06,45.22-13.86,15.34-10.35,22.12-23.47,23.71-41.6,11,5,28.48,4.49,39.35-.81,11.79-5.74,24-13.46,29-26.17,13.8,3.34,29.58-3.4,40.36-15.88,9.78-11.34,16.06-24.34,14.82-38.74-1.16-13.61-4.89-27-13.1-38.12-11.69-15.84-32.87-22-51.74-18.29-3.3.65-14.09,4.37-20.91,10.74-5.13-16.62-13.17-29.07-28-39-6.74-4.5-17.94-7.28-25.93-7.16-2.2,0-16.86,1.52-23.44,4.14-.57-11-5.51-17.93-15-24.33-8.14-5.47-17.07-6.71-26.84-5.14a82.08,82.08,0,0,0-9.16-11.45c-21.7-22-53-21-78.76-5.52-3.82,2.29-22.11,20.28-25.56,37.34-5.1-3.18-10.55-4.9-16.2-7a91.74,91.74,0,0,0-15-3.89c-47.77-9.67-125,6.73-135.08,63.93-14.15-6.53-29.08-8.16-43.84-2.32-19.62,7.76-31.36,34.78-29.19,54.74C975.25,265.06,1000.16,275.54,1025,274.53Z" transform="translate(-308.59 -72.14)"></path><path class="b" d="M1025,274.53c5.73-.24,11.5-.84,17.1-1.5-.07,10.88,7.78,27.18,9.46,29.77,9.29,14.31,29.76,26.51,47.07,27.55,20.32,1.22,35.9-4.31,49.54-14.21,3.16,10.17,12.24,21.46,20.16,26.16,29.63,17.61,72.79,6.68,96.45-14.53,17.56,29.93,39.27,36.87,72.68,37.72,15.81.4,32.18-5.06,45.22-13.86,15.34-10.35,22.12-23.47,23.71-41.6,11,5,28.48,4.49,39.35-.81,11.79-5.74,24-13.46,29-26.17,13.8,3.34,29.58-3.4,40.36-15.89,8.37-9.69,14.14-20.62,14.86-32.59-2,8.6-11.39,16.19-19.33,19.8a88.35,88.35,0,0,1-21.92,4.68,74.55,74.55,0,0,1-21.34-1.5,63.18,63.18,0,0,1-19.67-7.8,57.94,57.94,0,0,1-16.15-15.12c1.28,7.82,5.84,15.17,12,20.58a46.47,46.47,0,0,0,9.15,6.23c.46,11.62-11.94,19.18-21.77,22.7-15.73,5.64-34.4-2.76-45-15.66-13.34,36.85-92.38-5.79-57.88-20.08,9.54-2.57,24.31-4,36.1-7.62,12.17-3.73,24-11,30.41-21.83-9.84,7.65-21,11.53-32.45,13.55a121.15,121.15,0,0,1-34.7.48c-23.09-2.94-45.6-10.95-64.57-26.87h0l0,0c.59,1.07,1.24,2.12,1.9,3.15,17.48,30.26,32.86,96.26-1.93,105.71-30.92,8.41-53.19-4.1-57.24-25-2.4-12.39,1.69-27.74,14-43.45q2-2.25,3.81-4.65a141.24,141.24,0,0,1-41.2,17.27,173.08,173.08,0,0,1-43.37,4.71,152.79,152.79,0,0,1-42.9-6.66c-13.78-4.5-26.93-11.32-37.68-22.57,6,14.56,19.32,25.71,33.73,32.46a107.92,107.92,0,0,0,33.23,9.47c-9.19,44.23-77,23.45-79.14-26.51-12.66,16.52-62.77,16-74.08-14.09,0,.37,0,.75.07,1.12C975.25,265.06,1000.16,275.54,1025,274.53Z" transform="translate(-308.59 -72.14)"></path><path class="c" d="M1408.58,159.19a57.21,57.21,0,0,1,30.7,38c19.27-17.71,64.44-12.74,84.5,5.26a60.8,60.8,0,0,0-6.88-12.1c-11.69-15.84-32.87-22-51.74-18.29-3.3.65-14.09,4.37-20.91,10.74-5.13-16.62-13.17-29.07-28-39-6.74-4.5-17.94-7.28-25.93-7.16-2.2,0-16.86,1.52-23.44,4.14-.57-11-5.51-17.93-15-24.33-8.14-5.47-17.07-6.71-26.84-5.14a82.08,82.08,0,0,0-9.16-11.45c-21.7-22-53-21-78.76-5.52-3.82,2.29-22.11,20.28-25.56,37.34-5.1-3.18-10.55-4.9-16.2-7a91.74,91.74,0,0,0-15-3.89c-47.77-9.67-125,6.73-135.08,63.93-14.15-6.53-29.08-8.16-43.84-2.32-10.5,4.15-18.71,13.84-23.77,25,8.11-11,22.41-17.79,36.1-18.81,18.45-1.38,32.35,4,38.55,14.18,3.3-26.43,37.07-54.28,66.09-56.43,16.64-1.23,26.72,4.09,26,14.39-3,.43-5.94.94-8.87,1.61a84.16,84.16,0,0,0-25.64,10.24c9.32.32,18.13.08,26.89,0s17.35-.06,26,.11,17.23.47,26,.88,17.54.94,26.88,1a83.73,83.73,0,0,0-25.24-11.21c-1.68-.45-3.39-.83-5.09-1.2-1.75-8.07,10.65-14.61,24.85-15,27.35-.74,34,18.93,42.67,29.27-6.15-20.83,10.36-39.4,28.68-46.05s40.73.73,51.52,17a15,15,0,0,1,26.79,12.17A57.19,57.19,0,0,1,1408.58,159.19Z" transform="translate(-308.59 -72.14)"></path></svg>